<svg xmlns="http://www.w3.org/2000/svg" fill="none" viewBox="0 0 130 39"><path fill="#3778a3" d="M130 .33c-13.211 1.246-21.073 10.57-21.073 19.676 0 3.366 1.042 6.643 2.933 9.536h14.365c-3.532-2.103-5.56-5.793-5.56-9.589 0-4.709 3.316-9.645 9.335-10.876V.329zM101.955 29.531v-4.785c0-12.474-7.846-15.617-15.182-15.617-6.135 0-14.477 2.335-18.901 5.565V.666H55.808v28.865h12.064v-6.49c3.218-2.425 10.557-4.49 14.678-4.49 6.435 0 7.237 4.49 7.237 9.25v1.73h12.168zM47.296.33C34.084 1.574 26.224 10.9 26.224 20.004c0 3.366 1.04 6.643 2.93 9.537h14.368c-3.532-2.104-5.562-5.794-5.562-9.59 0-4.709 3.319-9.645 9.336-10.876V.329z"/><path fill="#ea6140" d="M21.074.33C7.858 1.574 0 10.9 0 20.004c0 3.366 1.041 6.643 2.933 9.537h14.365c-3.533-2.104-5.563-5.794-5.563-9.59 0-4.709 3.321-9.645 9.339-10.876V.329z"/><path fill="#131718" d="M4.978 38.175l-.163-.424a1.695 1.695 0 0 1-.843.233c-.756 0-1.217-.57-1.217-1.34 0-.734.45-1.344 1.255-1.344.34 0 .611.087.887.262l.011-.541c-.194-.108-.517-.199-.907-.199-1.117 0-1.851.823-1.851 1.863 0 1.023.643 1.806 1.737 1.806.362 0 .726-.092 1.091-.316zm4.476.26l-1.393-3.594h-.389l-1.36 3.594h.553l.333-.911H8.5l.351.911h.603zm-1.137-1.39h-.943l.343-.965.141-.435h.006l.129.442.324.958zm6.052 1.39v-3.584h-.537l-.95 1.514-.202.37h-.005l-.214-.36-1.02-1.524h-.53v3.584h.556v-2.294l-.018-.37h.01l.202.349.865 1.294h.291l.802-1.28.199-.363h.007l-.007.377v2.287h.551zm4.609 0l-1.39-3.594h-.389l-1.36 3.594h.555l.33-.911h1.3l.355.911h.599zm-1.133-1.39h-.948l.35-.965.138-.435h.007l.124.442.329.958zm5.084 1.39c-.548-.917-.915-1.557-1.066-1.633v-.004c.35-.14.664-.456.664-.947 0-.551-.338-1-1.218-1h-.878v3.584h.567v-1.453h.321c.143.04.414.527.964 1.453h.646zm-.974-2.526a.623.623 0 0 1-.63.629h-.327v-1.19h.316c.455 0 .641.254.641.562zm5.242 2.526l-1.39-3.594h-.39l-1.363 3.594h.559l.33-.911h1.304l.35.911h.6zm-1.133-1.39h-.948l.351-.965.137-.435h.006l.125.442.33.958zm7.548 1.13l-.159-.424a1.757 1.757 0 0 1-.853.233c-.756 0-1.215-.57-1.215-1.34 0-.734.448-1.344 1.255-1.344.339 0 .612.087.892.262l.007-.541c-.196-.108-.519-.199-.906-.199-1.12 0-1.853.823-1.853 1.863 0 1.023.64 1.806 1.734 1.806a2.08 2.08 0 0 0 1.098-.316zm4.45.26v-3.584h-.558v1.514h-1.777v-1.514h-.558v3.584h.558v-1.572h1.777v1.572h.558zm2.354-3.584h-.56v3.584h.56v-3.584zm3.635 3.584v-.487h-1.29v-3.097h-.554v3.584h1.844zm3.34 0v-.487h-1.324v-1.1h1.143v-.49h-1.143v-1.017h1.148l.172-.49H45.51v3.584h1.881zm4.732 0v-3.584h-.558v2.163l.007.5h-.008a4.609 4.609 0 0 0-.37-.539l-1.589-2.124h-.566v3.584h.557v-2.25l-.014-.471h.014c.083.15.18.29.353.517l1.652 2.204h.522zm4.603 0l-1.395-3.594h-.387l-1.36 3.594h.555l.33-.911h1.302l.352.911h.603zm-1.134-1.39h-.949l.346-.965.141-.435h.004l.129.442.329.958zm7.795-.437c0-1.027-.639-1.757-1.936-1.757h-.963v3.584h.942c1.27 0 1.957-.777 1.957-1.827zm-.59.011c0 .7-.365 1.33-1.342 1.33h-.412v-2.6h.412c.909 0 1.341.54 1.341 1.27zm4.082 1.816v-.487h-1.324v-1.1h1.142v-.49h-1.142v-1.017h1.149l.17-.49H65v3.584h1.88zm5.793 0v-.487h-1.283v-3.097h-.555v3.584h1.838zm4.272 0l-1.392-3.594h-.387l-1.362 3.594h.553l.334-.911h1.302l.351.911h.6zm-1.135-1.39h-.944l.347-.965.137-.435h.008l.128.442.324.958zm7.546 1.13l-.159-.424c-.25.142-.54.233-.848.233-.756 0-1.218-.57-1.218-1.34 0-.734.45-1.344 1.255-1.344.341 0 .614.087.891.262l.012-.541c-.2-.108-.52-.199-.907-.199-1.12 0-1.856.823-1.856 1.863 0 1.023.643 1.806 1.739 1.806.36 0 .723-.092 1.091-.316zm1.376-1.5c0 .557.204 1.044.559 1.375.307.28.721.441 1.217.441.517 0 .953-.179 1.27-.501.327-.325.51-.8.51-1.337 0-.506-.156-.948-.443-1.273-.318-.355-.783-.558-1.337-.558-.514 0-.96.194-1.274.52-.318.33-.502.799-.502 1.333zm2.956-.014c0 .834-.474 1.347-1.18 1.347-.707 0-1.185-.513-1.185-1.347 0-.837.478-1.349 1.185-1.349.736 0 1.18.547 1.18 1.349zm5.29 1.774v-3.584h-.558v2.163l.01.5h-.01a4.626 4.626 0 0 0-.369-.539l-1.592-2.124h-.56v3.584h.55v-2.25l-.008-.471h.009c.084.15.184.29.351.517l1.659 2.204h.518zm3.839-.94c0-1.098-1.536-1.079-1.536-1.787 0-.281.251-.412.556-.412.29 0 .56.103.802.252l.008-.532a1.757 1.757 0 0 0-.837-.194c-.712 0-1.1.431-1.1.954 0 .279.094.476.237.64.426.483 1.276.598 1.276 1.14 0 .33-.338.461-.627.461-.33 0-.605-.14-.784-.266l-.233.43c.225.146.555.31 1.038.31.682 0 1.2-.392 1.2-.996zm3.995-2.644h-2.7v.49h1.015v3.094h.572v-3.094h.963l.15-.49zm3.918 3.584c-.552-.917-.922-1.557-1.068-1.633v-.004c.346-.14.659-.456.659-.947 0-.551-.333-1-1.214-1h-.872v3.584h.557v-1.453h.327c.135.04.412.527.958 1.453h.653zm-.977-2.526a.62.62 0 0 1-.628.629h-.333v-1.19h.32c.451 0 .641.254.641.562zm5.147 1.23v-2.288h-.561v2.283c0 .259-.05.481-.198.632-.131.15-.346.232-.656.232-.277 0-.48-.082-.616-.232-.149-.168-.22-.414-.22-.665v-2.25h-.553v2.278c0 .376.076.764.342 1.018.215.217.554.344 1.037.344.503 0 .857-.141 1.086-.389.231-.237.339-.578.339-.962zm4.46 1.036l-.156-.424a1.72 1.72 0 0 1-.848.233c-.758 0-1.216-.57-1.216-1.34 0-.734.448-1.344 1.254-1.344.34 0 .615.087.888.262l.013-.541c-.199-.108-.52-.199-.907-.199-1.12 0-1.857.823-1.857 1.863 0 1.023.647 1.803 1.74 1.803.363 0 .723-.09 1.089-.313zm4.215 0l-.162-.424a1.742 1.742 0 0 1-.85.233c-.756 0-1.215-.57-1.215-1.34 0-.734.445-1.344 1.254-1.344.34 0 .613.087.89.262l.009-.541c-.197-.108-.517-.199-.907-.199-1.119 0-1.857.823-1.857 1.863 0 1.023.647 1.803 1.743 1.803.36 0 .724-.09 1.095-.313zm2.114-3.324h-.56v3.584h.56v-3.584zm1.611 1.824c0 .557.205 1.044.554 1.375.308.28.725.438 1.221.438.518 0 .948-.178 1.272-.498.322-.325.503-.8.503-1.337 0-.506-.152-.948-.44-1.277-.314-.351-.779-.554-1.335-.554-.516 0-.96.194-1.27.52-.326.33-.505.796-.505 1.333zm2.955-.014c0 .834-.476 1.347-1.18 1.347-.711 0-1.182-.513-1.182-1.347 0-.837.471-1.349 1.182-1.349.737 0 1.18.547 1.18 1.349zm5.29 1.774v-3.584h-.557v2.16l.007.503h-.007a5.385 5.385 0 0 0-.368-.542l-1.595-2.121h-.561v3.584h.554v-2.25l-.012-.471h.012c.086.15.182.288.352.517l1.651 2.204h.524z"/></svg>